<svg id="icon" xmlns="http://www.w3.org/2000/svg" viewBox="0 0 23.49 138.24"><defs><style>.cls-1{opacity:0.8;}.cls-2{fill:#d34f4f;}</style></defs><title>icon SVG</title><g class="cls-1"><path class="cls-2" d="M126.8,499.92l2.61-5.52a.82.82,0,0,1,.77-.47.81.81,0,0,1,.73.53l1.78,4.66,1.2-2.84a.81.81,0,0,1,.57-.48.82.82,0,0,1,.72.18l.85.76,1.21-1.3a.85.85,0,0,1,.62-.26.84.84,0,0,1,.61.3l1,1.22h3.84c-.15-4.54-2.28-7.32-6.19-7.32-2.35,0-4.7,2.65-5.39,3.18-.68-.53-3-3.18-5.38-3.18-4.06,0-6.2,3-6.2,7.84a6.67,6.67,0,0,0,.62,2.7Z" transform="translate(-119.99 -489.38)"/><path class="cls-2" d="M139.1,498.33a.83.83,0,0,1-.63-.3l-.66-.8-1.12,1.2a.83.83,0,0,1-1.14.06L135,498l-1.55,3.67a.81.81,0,0,1-.75.5h0a.83.83,0,0,1-.75-.53l-1.82-4.77-2,4.21-.08.12a.81.81,0,0,1-.7.4h-5.64c2.75,4.3,8.46,8.11,10.08,8.37,2-.32,10.41-6.17,11.48-11.6Z" transform="translate(-119.99 -489.38)"/></g><g class="cls-1"><path class="cls-2" d="M139.82,540a.36.36,0,0,1-.24-.09.33.33,0,0,1,0-.47l.82-.81-1.08-1.2a.35.35,0,0,1,0-.42l.88-1.19a.34.34,0,0,1,.47-.07.34.34,0,0,1,.06.47l-.71,1,1.11,1.23a.33.33,0,0,1,0,.45l-1,1A.33.33,0,0,1,139.82,540Z" transform="translate(-119.99 -489.38)"/><path class="cls-2" d="M142.11,540a.36.36,0,0,1-.24-.09.34.34,0,0,1,0-.47l.82-.81-1.09-1.2a.35.35,0,0,1,0-.42l.89-1.19a.32.32,0,0,1,.46-.07.34.34,0,0,1,.07.47l-.72,1,1.11,1.23a.33.33,0,0,1,0,.45l-1,1A.33.33,0,0,1,142.11,540Z" transform="translate(-119.99 -489.38)"/><rect class="cls-2" y="51.67" width="18.56" height="4.77" rx="1.5"/><rect class="cls-2" x="19.62" y="51.67" width="1.1" height="4.77" rx="0.55"/><rect class="cls-2" x="21.78" y="51.67" width="1.1" height="4.77" rx="0.55"/></g><g class="cls-1"><path class="cls-2" d="M142.51,571.73l-1.25-2.5a.5.5,0,0,0-.89,0l-1.25,2.5A2,2,0,0,0,139,573a1.93,1.93,0,0,0,1.47,1.46,1.91,1.91,0,0,0,2.3-1.87A1.83,1.83,0,0,0,142.51,571.73Z" transform="translate(-119.99 -489.38)"/><path class="cls-2" d="M141.52,563.11l-12,.35-5.61.16s-3.83-.11-3.79,5.1l.11,3.94c.27,5.3,4.09,5,4.09,5l6.9-.2A1.91,1.91,0,0,0,133,576a2,2,0,0,0-.29-1.64.48.48,0,0,0-.41-.21h-.75a.18.18,0,0,1-.19-.19.18.18,0,0,1,.18-.19l1.21,0a.46.46,0,0,0,.23-.06,2,2,0,0,0,.63-2.89.52.52,0,0,0-.41-.21l-1.71,0h0a.19.19,0,0,1-.19-.18.19.19,0,0,1,.19-.2l2.2,0a.46.46,0,0,0,.23-.06,2,2,0,0,0,.91-1.22,2,2,0,0,0-.32-1.68.48.48,0,0,0-.41-.2l-2.57,0h0a.18.18,0,0,1-.19-.19.19.19,0,0,1,.18-.19l10.26-.3a1.56,1.56,0,0,0,1.56-1.57A1.72,1.72,0,0,0,141.52,563.11Z" transform="translate(-119.99 -489.38)"/></g><g class="cls-1"><rect class="cls-2" x="128.96" y="591.44" width="5.55" height="6.45" rx="1.5" transform="translate(-582.92 237.02) rotate(-90)"/><rect class="cls-2" x="130.93" y="580.98" width="1.62" height="10.07" rx="0.78" transform="translate(-574.27 228.37) rotate(-90)"/><rect class="cls-2" x="130.93" y="598.29" width="1.62" height="10.07" rx="0.78" transform="translate(-591.58 245.68) rotate(-90)"/><rect class="cls-2" x="3.32" y="98.21" width="16.85" height="3.15" rx="1.5"/><rect class="cls-2" x="3.32" y="109.22" width="16.85" height="3.15" rx="1.5"/></g><g class="cls-1"><path class="cls-2" d="M126.67,620.85h0v-.42a.49.49,0,0,0-.46-.49l-2-.19-.61-.07a.5.5,0,0,0-.55.49v.34l1.52.16C125.27,620.74,126,620.8,126.67,620.85Z" transform="translate(-119.99 -489.38)"/><path class="cls-2" d="M131.26,621v-.38a.51.51,0,0,0-.49-.5c-.87,0-1.74,0-2.61-.08a.49.49,0,0,0-.52.49v.29s0,0,0,.08q1.81.11,3.63.12Z" transform="translate(-119.99 -489.38)"/><path class="cls-2" d="M135.84,620.84v-.29a.49.49,0,0,0-.52-.49c-.87,0-1.74.07-2.61.08a.51.51,0,0,0-.49.5v.4q1.82,0,3.63-.12S135.84,620.86,135.84,620.84Z" transform="translate(-119.99 -489.38)"/><path class="cls-2" d="M121.52,619.44h-.08l-.09.59a.27.27,0,0,0,.24.31h0a.45.45,0,0,0,.5-.44h0a.44.44,0,0,0-.4-.44Z" transform="translate(-119.99 -489.38)"/><path class="cls-2" d="M140.43,620.5v-.34a.5.5,0,0,0-.56-.49l-.6.07-2,.19a.49.49,0,0,0-.46.49v.42h0c.7-.05,1.4-.11,2.1-.19Z" transform="translate(-119.99 -489.38)"/><path class="cls-2" d="M142,619.44h-.19a.5.5,0,0,0-.45.5v.15a.26.26,0,0,0,.3.26l.2,0a.26.26,0,0,0,.23-.31Z" transform="translate(-119.99 -489.38)"/><path class="cls-2" d="M139,621.94a68.61,68.61,0,0,1-14.61,0l-3.2-.35c.43,3.57,2.91,6,10.51,6h0c7.6,0,10.08-2.47,10.5-6Zm-7.3,2.67a.84.84,0,1,1,0-1.67.84.84,0,1,1,0,1.67Z" transform="translate(-119.99 -489.38)"/><path class="cls-2" d="M142,617.15c-1.74-6.45-4-8.5-10.21-8.64h0c-6.24.14-8.48,2.19-10.21,8.64a8.53,8.53,0,0,0-.22,1,1.37,1.37,0,0,1,.35,0l2.69.3a66.72,66.72,0,0,0,14.77,0l2.7-.3a1.29,1.29,0,0,1,.34,0A8.42,8.42,0,0,0,142,617.15Z" transform="translate(-119.99 -489.38)"/></g></svg>