<svg id="图例" xmlns="http://www.w3.org/2000/svg" xmlns:xlink="http://www.w3.org/1999/xlink" viewBox="0 0 289.28 615.19"><defs><style>.cls-1,.cls-169,.cls-185,.cls-186,.cls-209,.cls-210,.cls-220,.cls-237,.cls-245,.cls-246,.cls-275,.cls-276,.cls-31,.cls-32,.cls-33,.cls-34,.cls-37,.cls-57{stroke-linecap:round;stroke-linejoin:round;}.cls-1,.cls-169,.cls-185,.cls-186,.cls-209,.cls-210,.cls-220,.cls-237,.cls-275,.cls-276,.cls-31,.cls-32,.cls-33,.cls-34,.cls-37,.cls-39,.cls-57{opacity:0.6;}.cls-1{fill:url(#未命名的渐变_10);stroke:url(#未命名的渐变_10-2);}.cls-2{opacity:0.55;}.cls-252,.cls-3{fill:#d34f4f;}.cls-3{opacity:0.3;}.cls-4{font-size:9px;}.cls-117,.cls-178,.cls-4{fill:#845959;}.cls-117,.cls-4{font-family:TimesNewRomanPSMT, Times New Roman;}.cls-5{letter-spacing:0.02em;}.cls-6{letter-spacing:0em;}.cls-7{letter-spacing:0em;}.cls-8{letter-spacing:0em;}.cls-9{letter-spacing:0.03em;}.cls-10{letter-spacing:0.01em;}.cls-11{letter-spacing:0.01em;}.cls-12{letter-spacing:0.01em;}.cls-13{letter-spacing:0.01em;}.cls-14{letter-spacing:0.01em;}.cls-15{letter-spacing:0.01em;}.cls-16{letter-spacing:0.02em;}.cls-17{letter-spacing:0.02em;}.cls-18{letter-spacing:-0.01em;}.cls-19{letter-spacing:0em;}.cls-20{letter-spacing:0.04em;}.cls-21{letter-spacing:0.02em;}.cls-22{letter-spacing:0.03em;}.cls-23{letter-spacing:0em;}.cls-24{letter-spacing:0.02em;}.cls-25{letter-spacing:0.03em;}.cls-26{letter-spacing:0em;}.cls-27{letter-spacing:0.01em;}.cls-28{letter-spacing:0em;}.cls-29{letter-spacing:0em;}.cls-30{letter-spacing:0em;}.cls-31{fill:url(#未命名的渐变_10-3);stroke:url(#未命名的渐变_10-4);}.cls-32{fill:url(#未命名的渐变_10-5);stroke:url(#未命名的渐变_10-6);}.cls-33{fill:url(#未命名的渐变_10-7);stroke:url(#未命名的渐变_10-8);}.cls-34{fill:url(#未命名的渐变_10-9);stroke:url(#未命名的渐变_10-10);}.cls-35{letter-spacing:0.02em;}.cls-36{letter-spacing:0.04em;}.cls-37{fill:url(#未命名的渐变_10-11);stroke:url(#未命名的渐变_10-12);}.cls-178,.cls-38{font-size:12px;}.cls-38,.cls-41{fill:#474747;}.cls-38,.cls-53,.cls-54,.cls-55,.cls-56{font-family:MicrosoftYaHeiLight, Microsoft YaHei;}.cls-245,.cls-246,.cls-248,.cls-249,.cls-280,.cls-281,.cls-40{fill:none;}.cls-40{stroke:#d34f4f;stroke-width:3px;}.cls-248,.cls-249,.cls-280,.cls-281,.cls-40{stroke-miterlimit:10;}.cls-41{font-size:14px;font-family:MicrosoftYaHei-Bold, Microsoft YaHei;}.cls-178,.cls-41{font-weight:700;}.cls-42{letter-spacing:0.01em;}.cls-43{letter-spacing:0.01em;}.cls-44{letter-spacing:-0.02em;}.cls-45{letter-spacing:-0.02em;}.cls-46{letter-spacing:0.01em;}.cls-47{letter-spacing:0.01em;}.cls-48{letter-spacing:0em;}.cls-49{letter-spacing:0em;}.cls-50{letter-spacing:-0.01em;}.cls-51{letter-spacing:0.01em;}.cls-52{letter-spacing:-0.32em;}.cls-53,.cls-54,.cls-55,.cls-56{font-weight:400;}.cls-53{letter-spacing:-0.04em;}.cls-54{letter-spacing:-0.02em;}.cls-55{letter-spacing:-0.05em;}.cls-56{letter-spacing:-0.36em;}.cls-57{fill:url(#未命名的渐变_4);stroke:url(#未命名的渐变_5);}.cls-58{letter-spacing:-0.02em;}.cls-59{letter-spacing:-0.03em;}.cls-60{letter-spacing:0.02em;}.cls-61{letter-spacing:-0.01em;}.cls-62{letter-spacing:-0.05em;}.cls-63{letter-spacing:-0.02em;}.cls-64{letter-spacing:-0.07em;}.cls-65{letter-spacing:-0.35em;}.cls-66{letter-spacing:-0.04em;}.cls-67{letter-spacing:-0.04em;}.cls-68{font-size:8px;}.cls-69{letter-spacing:-0.06em;}.cls-70{letter-spacing:0em;}.cls-71{letter-spacing:-0.01em;}.cls-72{letter-spacing:0.04em;}.cls-73{letter-spacing:0.01em;}.cls-74{letter-spacing:0.02em;}.cls-75{letter-spacing:0.04em;}.cls-76{letter-spacing:0.06em;}.cls-77{letter-spacing:0.04em;}.cls-78{letter-spacing:0.03em;}.cls-79{letter-spacing:0.02em;}.cls-80{letter-spacing:0.04em;}.cls-81{letter-spacing:0.04em;}.cls-82{letter-spacing:0.04em;}.cls-83{letter-spacing:0.03em;}.cls-84{letter-spacing:0.01em;}.cls-85{letter-spacing:0.04em;}.cls-86{letter-spacing:-0.02em;}.cls-87{letter-spacing:0.02em;}.cls-88{letter-spacing:0.01em;}.cls-89{letter-spacing:0.02em;}.cls-90{letter-spacing:0.01em;}.cls-91{letter-spacing:-0.02em;}.cls-92{letter-spacing:0.01em;}.cls-93{letter-spacing:0.02em;}.cls-94{letter-spacing:0.01em;}.cls-95{letter-spacing:0.02em;}.cls-96{letter-spacing:-0.01em;}.cls-97{letter-spacing:0em;}.cls-98{letter-spacing:0.02em;}.cls-99{letter-spacing:0.01em;}.cls-100{letter-spacing:0.02em;}.cls-101{letter-spacing:0.01em;}.cls-102{letter-spacing:0.01em;}.cls-103{letter-spacing:0em;}.cls-104{letter-spacing:0.02em;}.cls-105{letter-spacing:0em;}.cls-106{letter-spacing:-0.03em;}.cls-107{letter-spacing:-0.02em;}.cls-108{letter-spacing:-0.04em;}.cls-109{letter-spacing:0.01em;}.cls-110{letter-spacing:0.03em;}.cls-111{letter-spacing:-0.01em;}.cls-112{letter-spacing:0.01em;}.cls-113{letter-spacing:0.01em;}.cls-114{letter-spacing:0em;}.cls-115{letter-spacing:0.02em;}.cls-116{letter-spacing:-0.05em;}.cls-117{font-size:10px;}.cls-118{letter-spacing:-0.01em;}.cls-119{letter-spacing:0em;}.cls-120{letter-spacing:0em;}.cls-121{letter-spacing:0.01em;}.cls-122{letter-spacing:-0.07em;}.cls-123{letter-spacing:-0.02em;}.cls-124{letter-spacing:0.01em;}.cls-125{letter-spacing:0.02em;}.cls-126{letter-spacing:0em;}.cls-127{letter-spacing:-0.01em;}.cls-128{letter-spacing:-0.07em;}.cls-129{letter-spacing:0.01em;}.cls-130{letter-spacing:0em;}.cls-131{letter-spacing:0em;}.cls-132{letter-spacing:-0.02em;}.cls-133{letter-spacing:-0.07em;}.cls-134{letter-spacing:0.02em;}.cls-135{letter-spacing:0.03em;}.cls-136{letter-spacing:-0.01em;}.cls-137{letter-spacing:0em;}.cls-138{letter-spacing:0.02em;}.cls-139{letter-spacing:-0.04em;}.cls-140{letter-spacing:0.01em;}.cls-141{letter-spacing:0.01em;}.cls-142{letter-spacing:0.01em;}.cls-143{letter-spacing:0.02em;}.cls-144{letter-spacing:0.02em;}.cls-145{letter-spacing:0em;}.cls-146{letter-spacing:0.02em;}.cls-147{letter-spacing:-0.02em;}.cls-148{letter-spacing:0.01em;}.cls-149{letter-spacing:0em;}.cls-150{letter-spacing:0.01em;}.cls-151{letter-spacing:0em;}.cls-152{letter-spacing:0.01em;}.cls-153{letter-spacing:0em;}.cls-154{letter-spacing:0.01em;}.cls-155{letter-spacing:0em;}.cls-156{letter-spacing:0.02em;}.cls-157{letter-spacing:0.02em;}.cls-158{letter-spacing:-0.01em;}.cls-159{letter-spacing:0.01em;}.cls-160{letter-spacing:0.04em;}.cls-161{letter-spacing:0em;}.cls-162{letter-spacing:0.01em;}.cls-163{letter-spacing:0.02em;}.cls-164{letter-spacing:0em;}.cls-165{letter-spacing:0.02em;}.cls-166{letter-spacing:0em;}.cls-167{letter-spacing:-0.04em;}.cls-168{letter-spacing:-0.03em;}.cls-169{fill:url(#未命名的渐变_4-2);stroke:url(#未命名的渐变_5-2);}.cls-170{letter-spacing:-0.01em;}.cls-171{letter-spacing:0.04em;}.cls-172{letter-spacing:0.01em;}.cls-173{letter-spacing:0.02em;}.cls-174{letter-spacing:0.02em;}.cls-175{letter-spacing:0.02em;}.cls-176{letter-spacing:0em;}.cls-177{letter-spacing:0em;}.cls-178{font-family:TimesNewRomanPS-BoldMT, Times New Roman;}.cls-179{letter-spacing:-0.02em;}.cls-180{letter-spacing:0.01em;}.cls-181{letter-spacing:0.04em;}.cls-182{letter-spacing:-0.04em;}.cls-183{letter-spacing:0em;}.cls-184{letter-spacing:0.02em;}.cls-185{fill:url(#未命名的渐变_10-13);stroke:url(#未命名的渐变_10-14);}.cls-186{fill:url(#未命名的渐变_10-15);stroke:url(#未命名的渐变_10-16);}.cls-187{letter-spacing:-0.08em;}.cls-188{letter-spacing:0.01em;}.cls-189{letter-spacing:0.02em;}.cls-190{letter-spacing:-0.04em;}.cls-191{letter-spacing:0.01em;}.cls-192{letter-spacing:-0.04em;}.cls-193{letter-spacing:0em;}.cls-194{letter-spacing:-0.02em;}.cls-195{letter-spacing:-0.06em;}.cls-196{letter-spacing:0.02em;}.cls-197{letter-spacing:-0.04em;}.cls-198{letter-spacing:0.01em;}.cls-199{letter-spacing:0.02em;}.cls-200{letter-spacing:0em;}.cls-201{letter-spacing:0em;}.cls-202{letter-spacing:-0.02em;}.cls-203{letter-spacing:0.01em;}.cls-204{letter-spacing:0.01em;}.cls-205{letter-spacing:0.01em;}.cls-206{letter-spacing:0.02em;}.cls-207{letter-spacing:0.01em;}.cls-208{letter-spacing:-0.05em;}.cls-209{fill:url(#未命名的渐变_10-17);stroke:url(#未命名的渐变_10-18);}.cls-210{fill:url(#未命名的渐变_10-19);stroke:url(#未命名的渐变_10-20);}.cls-211{letter-spacing:-0.01em;}.cls-212{letter-spacing:-0.01em;}.cls-213{letter-spacing:-0.04em;}.cls-214{letter-spacing:0em;}.cls-215{letter-spacing:0.01em;}.cls-216{letter-spacing:0.01em;}.cls-217{letter-spacing:0em;}.cls-218{letter-spacing:0.04em;}.cls-219{letter-spacing:0.01em;}.cls-220{fill:url(#未命名的渐变_10-21);stroke:url(#未命名的渐变_10-22);}.cls-221{letter-spacing:0.01em;}.cls-222{letter-spacing:0em;}.cls-223{letter-spacing:0em;}.cls-224{letter-spacing:0.01em;}.cls-225{letter-spacing:0.03em;}.cls-226{letter-spacing:0em;}.cls-227{letter-spacing:-0.02em;}.cls-228{letter-spacing:0.02em;}.cls-229{letter-spacing:0.03em;}.cls-230{letter-spacing:0.01em;}.cls-231{letter-spacing:0.02em;}.cls-232{letter-spacing:-0.06em;}.cls-233{letter-spacing:-0.32em;}.cls-234{letter-spacing:0.03em;}.cls-235{letter-spacing:0.02em;}.cls-236{letter-spacing:0.01em;}.cls-237{fill:url(#未命名的渐变_10-23);stroke:url(#未命名的渐变_10-24);}.cls-238{letter-spacing:0.02em;}.cls-239{letter-spacing:-0.04em;}.cls-240{letter-spacing:0.01em;}.cls-241{letter-spacing:0.01em;}.cls-242{letter-spacing:0.01em;}.cls-243{letter-spacing:0em;}.cls-244{letter-spacing:0em;}.cls-245,.cls-246,.cls-248,.cls-249{stroke:#dd6f6f;}.cls-245{stroke-width:1.19px;stroke-dasharray:2.38;}.cls-245,.cls-246,.cls-252{opacity:0.5;}.cls-246{stroke-dasharray:2;}.cls-247{fill:#dd6f6f;}.cls-248,.cls-249{stroke-width:2px;}.cls-249{stroke-dasharray:2.38;}.cls-250{fill:#8cb3dd;}.cls-251{fill:#e8aaaa;}.cls-253{letter-spacing:0em;}.cls-254{letter-spacing:0em;}.cls-255{letter-spacing:0.02em;}.cls-256{letter-spacing:-0.01em;}.cls-257{letter-spacing:0.01em;}.cls-258{letter-spacing:-0.07em;}.cls-259{letter-spacing:0.03em;}.cls-260{letter-spacing:0em;}.cls-261{letter-spacing:-0.04em;}.cls-262{letter-spacing:0.01em;}.cls-263{letter-spacing:0.01em;}.cls-264{letter-spacing:0.01em;}.cls-265{letter-spacing:0em;}.cls-266{letter-spacing:0.02em;}.cls-267{letter-spacing:0.01em;}.cls-268{letter-spacing:0.02em;}.cls-269{letter-spacing:0.02em;}.cls-270{letter-spacing:-0.01em;}.cls-271{letter-spacing:0.02em;}.cls-272{letter-spacing:-0.01em;}.cls-273{letter-spacing:0.02em;}.cls-274{fill:#dba9a9;}.cls-275{fill:url(#未命名的渐变_4-3);stroke:url(#未命名的渐变_5-3);}.cls-276{fill:url(#未命名的渐变_4-4);stroke:url(#未命名的渐变_5-4);}.cls-277{letter-spacing:0em;}.cls-278{letter-spacing:-0.03em;}.cls-279{letter-spacing:0.01em;}.cls-280{stroke:#dba9a9;}.cls-280,.cls-281{stroke-dasharray:5 5;}.cls-281{stroke:#8cb3dd;}</style><linearGradient id="未命名的渐变_10" x1="0.5" y1="504.64" x2="50.5" y2="504.64" gradientUnits="userSpaceOnUse"><stop offset="0" stop-color="#dbebff" stop-opacity="0"/><stop offset="0.11" stop-color="#d9e4f6" stop-opacity="0.05"/><stop offset="0.29" stop-color="#d2d0dc" stop-opacity="0.18"/><stop offset="0.52" stop-color="#c7afb2" stop-opacity="0.4"/><stop offset="0.77" stop-color="#b78278" stop-opacity="0.7"/><stop offset="0.99" stop-color="#a8553f"/></linearGradient><linearGradient id="未命名的渐变_10-2" x1="-1016.95" y1="793.29" x2="-965.95" y2="793.29" gradientTransform="matrix(-1, 0, 0, 1, -965.95, -288.65)" xlink:href="#未命名的渐变_10"/><linearGradient id="未命名的渐变_10-3" x1="186.9" y1="480.54" x2="256.9" y2="480.54" xlink:href="#未命名的渐变_10"/><linearGradient id="未命名的渐变_10-4" x1="186.4" y1="480.54" x2="257.4" y2="480.54" xlink:href="#未命名的渐变_10"/><linearGradient id="未命名的渐变_10-5" x1="205.19" y1="518.04" x2="275.19" y2="518.04" xlink:href="#未命名的渐变_10"/><linearGradient id="未命名的渐变_10-6" x1="204.69" y1="518.04" x2="275.69" y2="518.04" xlink:href="#未命名的渐变_10"/><linearGradient id="未命名的渐变_10-7" x1="190.9" y1="580.29" x2="250.9" y2="580.29" xlink:href="#未命名的渐变_10"/><linearGradient id="未命名的渐变_10-8" x1="190.4" y1="580.29" x2="251.4" y2="580.29" xlink:href="#未命名的渐变_10"/><linearGradient id="未命名的渐变_10-9" x1="24.17" y1="596.43" x2="74.17" y2="596.43" xlink:href="#未命名的渐变_10"/><linearGradient id="未命名的渐变_10-10" x1="-1040.61" y1="885.08" x2="-989.61" y2="885.08" gradientTransform="matrix(-1, 0, 0, 1, -965.95, -288.65)" xlink:href="#未命名的渐变_10"/><linearGradient id="未命名的渐变_10-11" x1="126.93" y1="452.99" x2="196.93" y2="452.99" xlink:href="#未命名的渐变_10"/><linearGradient id="未命名的渐变_10-12" x1="1722.51" y1="741.44" x2="1809.19" y2="741.44" gradientTransform="matrix(0.82, 0, -0.01, 1, -1276.75, -296.22)" xlink:href="#未命名的渐变_10"/><linearGradient id="未命名的渐变_4" x1="1621.02" y1="706.49" x2="1795.85" y2="706.49" gradientTransform="matrix(-1, 0, 0, 1, 1836.23, -288.65)" gradientUnits="userSpaceOnUse"><stop offset="0" stop-color="#dbebff" stop-opacity="0"/><stop offset="0.11" stop-color="#cfc8d2" stop-opacity="0.24"/><stop offset="0.24" stop-color="#c3a5a5" stop-opacity="0.47"/><stop offset="0.38" stop-color="#b98880" stop-opacity="0.66"/><stop offset="0.52" stop-color="#b27163" stop-opacity="0.81"/><stop offset="0.66" stop-color="#ac624f" stop-opacity="0.92"/><stop offset="0.82" stop-color="#a95843" stop-opacity="0.98"/><stop offset="0.99" stop-color="#a8553f"/></linearGradient><linearGradient id="未命名的渐变_5" x1="1599.36" y1="706.56" x2="1814.35" y2="706.53" gradientTransform="matrix(-0.82, 0, 0.01, 1, 1518.48, -296.22)" gradientUnits="userSpaceOnUse"><stop offset="0" stop-color="#dbebff" stop-opacity="0"/><stop offset="0.04" stop-color="#d6dbeb" stop-opacity="0.11"/><stop offset="0.14" stop-color="#cab8bd" stop-opacity="0.34"/><stop offset="0.24" stop-color="#bf9996" stop-opacity="0.55"/><stop offset="0.36" stop-color="#b78076" stop-opacity="0.71"/><stop offset="0.48" stop-color="#b06d5e" stop-opacity="0.84"/><stop offset="0.61" stop-color="#ac5f4c" stop-opacity="0.93"/><stop offset="0.77" stop-color="#a95742" stop-opacity="0.98"/><stop offset="0.99" stop-color="#a8553f"/></linearGradient><linearGradient id="未命名的渐变_4-2" x1="1621.02" y1="425.13" x2="1795.85" y2="425.13" xlink:href="#未命名的渐变_4"/><linearGradient id="未命名的渐变_5-2" x1="1597.51" y1="425.21" x2="1812.49" y2="425.18" xlink:href="#未命名的渐变_5"/><linearGradient id="未命名的渐变_10-13" x1="0.5" y1="187.61" x2="47.62" y2="187.61" xlink:href="#未命名的渐变_10"/><linearGradient id="未命名的渐变_10-14" x1="-1014.07" y1="476.27" x2="-965.95" y2="476.27" gradientTransform="matrix(-1, 0, 0, 1, -965.95, -288.65)" xlink:href="#未命名的渐变_10"/><linearGradient id="未命名的渐变_10-15" x1="66.05" y1="187.61" x2="94.56" y2="187.61" xlink:href="#未命名的渐变_10"/><linearGradient id="未命名的渐变_10-16" x1="-1061.01" y1="476.27" x2="-1031.5" y2="476.27" gradientTransform="matrix(-1, 0, 0, 1, -965.95, -288.65)" xlink:href="#未命名的渐变_10"/><linearGradient id="未命名的渐变_10-17" x1="156.88" y1="187.61" x2="183.07" y2="187.61" xlink:href="#未命名的渐变_10"/><linearGradient id="未命名的渐变_10-18" x1="-1149.52" y1="476.27" x2="-1122.33" y2="476.27" gradientTransform="matrix(-1, 0, 0, 1, -965.95, -288.65)" xlink:href="#未命名的渐变_10"/><linearGradient id="未命名的渐变_10-19" x1="228.32" y1="187.61" x2="255.65" y2="187.61" xlink:href="#未命名的渐变_10"/><linearGradient id="未命名的渐变_10-20" x1="-1222.1" y1="476.27" x2="-1193.77" y2="476.27" gradientTransform="matrix(-1, 0, 0, 1, -965.95, -288.65)" xlink:href="#未命名的渐变_10"/><linearGradient id="未命名的渐变_10-21" x1="208.98" y1="272.29" x2="236.32" y2="272.29" xlink:href="#未命名的渐变_10"/><linearGradient id="未命名的渐变_10-22" x1="-1202.76" y1="560.94" x2="-1174.43" y2="560.94" gradientTransform="matrix(-1, 0, 0, 1, -965.95, -288.65)" xlink:href="#未命名的渐变_10"/><linearGradient id="未命名的渐变_10-23" x1="109.8" y1="187.61" x2="135.99" y2="187.61" xlink:href="#未命名的渐变_10"/><linearGradient id="未命名的渐变_10-24" x1="-1102.44" y1="476.27" x2="-1075.25" y2="476.27" gradientTransform="matrix(-1, 0, 0, 1, -965.95, -288.65)" xlink:href="#未命名的渐变_10"/><linearGradient id="未命名的渐变_4-3" x1="1741.44" y1="369.48" x2="1767.48" y2="369.48" xlink:href="#未命名的渐变_4"/><linearGradient id="未命名的渐变_5-3" x1="1744.53" y1="369.3" x2="1777.4" y2="369.29" xlink:href="#未命名的渐变_5"/><linearGradient id="未命名的渐变_4-4" x1="1649.39" y1="369.48" x2="1681.72" y2="369.48" xlink:href="#未命名的渐变_4"/><linearGradient id="未命名的渐变_5-4" x1="1631.86" y1="369.78" x2="1672.44" y2="369.77" xlink:href="#未命名的渐变_5"/></defs><title>右新图例 5.15</title><line class="cls-1" x1="50.5" y1="504.64" x2="0.5" y2="504.64"/><g class="cls-2"><path class="cls-3" d="M1746.27,821h47.94a72.51,72.51,0,0,0-6.29-29.11l-43.59,19.47A24.8,24.8,0,0,1,1746.27,821Z" transform="translate(-1594.51 -288.65)"/><path class="cls-3" d="M1794.18,819.31l-47.91,1.54c0,.07,0,.13,0,.2a25,25,0,0,1-19.82,24.47l10.28,47.16a72.77,72.77,0,0,0,57.47-71.14C1794.21,820.8,1794.2,820.05,1794.18,819.31Z" transform="translate(-1594.51 -288.65)"/><path class="cls-3" d="M1721.27,846.06a25,25,0,0,1-24-17.82l-45.7,13.66a72.81,72.81,0,0,0,86.84,50.39l-11.84-46.8A25.4,25.4,0,0,1,1721.27,846.06Z" transform="translate(-1594.51 -288.65)"/><path class="cls-3" d="M1696.26,821.05a25,25,0,0,1,23-24.92l-3.86-47.06c-36.88,3.53-66.78,34.67-66.78,72.47a72.69,72.69,0,0,0,3.16,21.25l45.79-13.87A25,25,0,0,1,1696.26,821.05Z" transform="translate(-1594.51 -288.65)"/><path class="cls-3" d="M1721.27,796a25,25,0,0,1,10.54,2.33l20.07-42.93a73.14,73.14,0,0,0-38.37-6.21l5.56,46.91C1719.79,796.08,1720.52,796,1721.27,796Z" transform="translate(-1594.51 -288.65)"/><path class="cls-3" d="M1744.38,811.5l44.2-18.07a73,73,0,0,0-38.17-38.65l-18.73,43.53A25.07,25.07,0,0,1,1744.38,811.5Z" transform="translate(-1594.51 -288.65)"/></g><text class="cls-4" transform="translate(24.17 593.67)"><tspan class="cls-5">A</tspan><tspan class="cls-6" x="6.64" y="0">s</tspan><tspan class="cls-7" x="10.12" y="0">i</tspan><tspan x="12.66" y="0">a</tspan></text><text class="cls-4" transform="translate(224.4 577.53)"><tspan class="cls-8">E</tspan><tspan class="cls-9" x="5.48" y="0">u</tspan><tspan class="cls-10" x="10.26" y="0">r</tspan><tspan class="cls-11" x="13.33" y="0">o</tspan><tspan class="cls-12" x="17.88" y="0">p</tspan><tspan x="22.51" y="0">e</tspan></text><text class="cls-4" transform="translate(166.68 450.23)"><tspan class="cls-13">O</tspan><tspan class="cls-14" x="6.61" y="0">c</tspan><tspan class="cls-15" x="10.69" y="0">e</tspan><tspan class="cls-16" x="14.8" y="0">a</tspan><tspan class="cls-17" x="19" y="0">n</tspan><tspan class="cls-7" x="23.72" y="0">i</tspan><tspan x="26.26" y="0">a</tspan></text><text class="cls-4" transform="translate(201.3 477.78)"><tspan class="cls-18">N</tspan><tspan class="cls-19" x="6.44" y="0">o</tspan><tspan class="cls-20" x="10.98" y="0">r</tspan><tspan class="cls-21" x="14.36" y="0">t</tspan><tspan x="17.06" y="0">h </tspan><tspan class="cls-22" x="23.81" y="0">A</tspan><tspan class="cls-23" x="30.6" y="0">m</tspan><tspan class="cls-24" x="37.64" y="0">e</tspan><tspan class="cls-25" x="41.78" y="0">r</tspan><tspan class="cls-26" x="45.07" y="0">i</tspan><tspan class="cls-27" x="47.54" y="0">c</tspan><tspan x="51.6" y="0">a</tspan></text><text class="cls-4" transform="translate(217.63 515.28)"> <tspan class="cls-28" x="2.25" y="0">S</tspan><tspan class="cls-29" x="7.29" y="0">o</tspan><tspan class="cls-30" x="11.8" y="0">u</tspan><tspan class="cls-21" x="16.33" y="0">t</tspan><tspan x="19.02" y="0">h </tspan><tspan class="cls-22" x="25.77" y="0">A</tspan><tspan class="cls-23" x="32.57" y="0">m</tspan><tspan class="cls-24" x="39.6" y="0">e</tspan><tspan class="cls-25" x="43.74" y="0">r</tspan><tspan class="cls-26" x="47.04" y="0">i</tspan><tspan class="cls-27" x="49.5" y="0">c</tspan><tspan x="53.57" y="0">a</tspan></text><line class="cls-31" x1="186.9" y1="480.54" x2="256.9" y2="480.54"/><line class="cls-32" x1="205.19" y1="518.04" x2="275.19" y2="518.04"/><line class="cls-33" x1="190.9" y1="580.29" x2="250.9" y2="580.29"/><line class="cls-34" x1="74.17" y1="596.43" x2="24.17" y2="596.43"/><text class="cls-4" transform="translate(0.5 501.88)"><tspan class="cls-35">A</tspan><tspan class="cls-36" x="6.68" y="0">f</tspan><tspan class="cls-25" x="10" y="0">r</tspan><tspan class="cls-26" x="13.29" y="0">i</tspan><tspan class="cls-27" x="15.75" y="0">c</tspan><tspan x="19.82" y="0">a</tspan></text><line class="cls-37" x1="126.93" y1="452.99" x2="196.93" y2="452.99"/><text class="cls-38" transform="translate(111.08 535.88)"><tspan xml:space="preserve"> 地图 </tspan></text><text class="cls-38" transform="translate(160.93 439.61)">大洋洲</text><text class="cls-38" transform="translate(220.9 467.16)">北美洲</text><text class="cls-38" transform="translate(239.19 504.66)">南美洲</text><text class="cls-38" transform="translate(226.9 566.91)">欧洲</text><text class="cls-38" transform="translate(0.5 491.26)">非洲</text><text class="cls-38" transform="translate(24.17 583.05)">亚洲</text><g class="cls-39"><path class="cls-40" d="M1738.26,900.57A80.88,80.88,0,0,1,1644,844.86" transform="translate(-1594.51 -288.65)"/><path class="cls-40" d="M1643.27,842.23a80.89,80.89,0,0,1,69.06-101" transform="translate(-1594.51 -288.65)"/><path class="cls-40" d="M1802.19,821.54A80.83,80.83,0,0,1,1740.82,900" transform="translate(-1594.51 -288.65)"/><path class="cls-40" d="M1796.21,791a80.69,80.69,0,0,1,5.94,28" transform="translate(-1594.51 -288.65)"/><path class="cls-40" d="M1755.64,748.34a81.12,81.12,0,0,1,39.54,40.24" transform="translate(-1594.51 -288.65)"/><path class="cls-40" d="M1715,741c2.12-.17,4.27-.25,6.43-.25a80.51,80.51,0,0,1,31.82,6.5" transform="translate(-1594.51 -288.65)"/></g><text class="cls-41" transform="translate(0.5 12.04)"><tspan class="cls-42">全</tspan><tspan class="cls-43" x="14.17" y="0">球</tspan><tspan class="cls-44" x="28.28" y="0">心</tspan><tspan class="cls-45" x="42.05" y="0">血</tspan><tspan class="cls-46" x="55.79" y="0">管</tspan><tspan class="cls-47" x="69.9" y="0">病</tspan><tspan class="cls-48" x="84.11" y="0">各</tspan><tspan class="cls-49" x="98.09" y="0">因</tspan><tspan class="cls-7" x="112.12" y="0">素</tspan><tspan class="cls-50" x="126.18" y="0">平</tspan><tspan class="cls-51" x="140.05" y="0">均</tspan><tspan class="cls-52" x="154.13" y="0">值</tspan><tspan class="cls-53" x="163.66" y="0">（</tspan><tspan class="cls-54" x="177.14" y="0">解</tspan><tspan class="cls-55" x="190.82" y="0">读</tspan><tspan class="cls-56" x="204.13" y="0">）</tspan><tspan x="213.04" y="0">：</tspan></text><line class="cls-57" x1="215.21" y1="417.84" x2="40.39" y2="417.84"/><text class="cls-38" transform="translate(40.39 379.46)"><tspan class="cls-58">心</tspan><tspan class="cls-59" x="11.7" y="0">血</tspan><tspan class="cls-60" x="23.37" y="0">管</tspan><tspan class="cls-61" x="35.61" y="0">死</tspan><tspan class="cls-62" x="47.54" y="0">亡</tspan><tspan class="cls-63" x="58.9" y="0">占</tspan><tspan class="cls-64" x="70.71" y="0">比</tspan><tspan class="cls-65" x="81.88" y="0">：</tspan><tspan class="cls-66" x="89.66" y="0">4</tspan><tspan class="cls-67" x="96.02" y="0">5</tspan><tspan x="102.25" y="0">%</tspan><tspan class="cls-68"><tspan class="cls-69" x="0" y="10">（</tspan><tspan class="cls-70" x="7.52" y="10">心</tspan><tspan class="cls-71" x="15.49" y="10">血</tspan><tspan class="cls-72" x="23.44" y="10">管</tspan><tspan class="cls-73" x="31.74" y="10">死</tspan><tspan class="cls-74" x="39.86" y="10">亡</tspan><tspan class="cls-75" x="48.03" y="10">人</tspan><tspan class="cls-76" x="56.34" y="10">数</tspan><tspan class="cls-77" x="64.81" y="10">/</tspan><tspan class="cls-78" x="68.26" y="10">非</tspan><tspan class="cls-79" x="76.5" y="10">传</tspan><tspan class="cls-80" x="84.66" y="10">染</tspan><tspan class="cls-81" x="92.98" y="10">性</tspan><tspan class="cls-82" x="101.32" y="10">疾</tspan><tspan class="cls-83" x="109.63" y="10">病</tspan><tspan class="cls-84" x="117.88" y="10">死</tspan><tspan class="cls-74" x="126" y="10">亡</tspan><tspan class="cls-85" x="134.16" y="10">人</tspan><tspan class="cls-86" x="142.48" y="10">数</tspan><tspan x="150.31" y="10">）</tspan></tspan></text><text class="cls-4" transform="translate(40.39 399.03)"><tspan class="cls-87">P</tspan><tspan class="cls-10" x="5.2" y="0">r</tspan><tspan class="cls-11" x="8.27" y="0">o</tspan><tspan class="cls-88" x="12.82" y="0">p</tspan><tspan class="cls-19" x="17.44" y="0">o</tspan><tspan class="cls-20" x="21.98" y="0">r</tspan><tspan class="cls-89" x="25.36" y="0">t</tspan><tspan class="cls-18" x="28.08" y="0">i</tspan><tspan class="cls-90" x="30.52" y="0">o</tspan><tspan x="35.07" y="0">n </tspan><tspan class="cls-91" x="41.82" y="0">o</tspan><tspan x="46.17" y="0">f </tspan><tspan class="cls-92" x="51.41" y="0">C</tspan><tspan class="cls-93" x="57.5" y="0">a</tspan><tspan class="cls-94" x="61.71" y="0">r</tspan><tspan class="cls-95" x="64.76" y="0">d</tspan><tspan class="cls-18" x="69.45" y="0">i</tspan><tspan class="cls-96" x="71.89" y="0">o</tspan><tspan class="cls-97" x="76.28" y="0">v</tspan><tspan class="cls-98" x="80.79" y="0">a</tspan><tspan class="cls-99" x="84.95" y="0">s</tspan><tspan class="cls-14" x="88.54" y="0">c</tspan><tspan class="cls-100" x="92.62" y="0">u</tspan><tspan class="cls-101" x="97.28" y="0">l</tspan><tspan class="cls-93" x="99.84" y="0">a</tspan><tspan x="104.04" y="0">r </tspan><tspan class="cls-102" x="109.29" y="0">D</tspan><tspan class="cls-15" x="115.89" y="0">e</tspan><tspan class="cls-103" x="120" y="0">a</tspan><tspan class="cls-104" x="124.04" y="0">t</tspan><tspan class="cls-105" x="126.74" y="0">h</tspan><tspan x="131.25" y="0">: </tspan><tspan class="cls-106" x="136" y="0">4</tspan><tspan class="cls-107" x="140.23" y="0">5</tspan><tspan x="144.54" y="0">%</tspan><tspan class="cls-108" x="0" y="10">(</tspan><tspan class="cls-109" x="2.65" y="10">C</tspan><tspan class="cls-110" x="8.78" y="10">V</tspan><tspan x="15.57" y="10">D / </tspan><tspan class="cls-111" x="29.07" y="10">N</tspan><tspan class="cls-112" x="35.51" y="10">C</tspan><tspan x="41.59" y="10">D </tspan><tspan class="cls-113" x="50.34" y="10">D</tspan><tspan class="cls-15" x="56.94" y="10">e</tspan><tspan class="cls-114" x="61.06" y="10">a</tspan><tspan class="cls-21" x="65.09" y="10">t</tspan><tspan class="cls-115" x="67.79" y="10">h</tspan><tspan class="cls-116" x="72.44" y="10">s</tspan><tspan x="75.49" y="10">)</tspan></text><text class="cls-117" transform="translate(3.11 24.02)"><tspan class="cls-118">Gl</tspan><tspan class="cls-119" x="9.82" y="0">o</tspan><tspan class="cls-120" x="14.78" y="0">b</tspan><tspan class="cls-121" x="19.8" y="0">a</tspan><tspan x="24.31" y="0">l </tspan><tspan class="cls-122" x="29.59" y="0">A</tspan><tspan class="cls-123" x="36.12" y="0">v</tspan><tspan class="cls-124" x="40.96" y="0">e</tspan><tspan class="cls-125" x="45.52" y="0">r</tspan><tspan class="cls-126" x="49.01" y="0">a</tspan><tspan class="cls-127" x="53.49" y="0">g</tspan><tspan x="58.43" y="0">e </tspan><tspan class="cls-128" x="65.37" y="0">V</tspan><tspan class="cls-129" x="71.9" y="0">a</tspan><tspan class="cls-130" x="76.4" y="0">l</tspan><tspan class="cls-131" x="79.14" y="0">u</tspan><tspan x="84.15" y="0">e </tspan><tspan class="cls-132" x="91.09" y="0">o</tspan><tspan x="95.88" y="0">f </tspan><tspan class="cls-133" x="101.71" y="0">V</tspan><tspan class="cls-134" x="108.24" y="0">a</tspan><tspan class="cls-135" x="112.88" y="0">r</tspan><tspan class="cls-136" x="116.5" y="0">i</tspan><tspan class="cls-137" x="119.17" y="0">o</tspan><tspan class="cls-138" x="124.15" y="0">u</tspan><tspan x="129.3" y="0">s </tspan><tspan class="cls-139" x="135.69" y="0">F</tspan><tspan class="cls-140" x="140.83" y="0">a</tspan><tspan class="cls-141" x="145.4" y="0">c</tspan><tspan class="cls-142" x="149.89" y="0">t</tspan><tspan x="152.78" y="0">o</tspan><tspan class="cls-143" x="157.78" y="0">r</tspan><tspan x="161.27" y="0">s </tspan><tspan class="cls-132" x="167.66" y="0">o</tspan><tspan x="172.46" y="0">f </tspan><tspan class="cls-141" x="178.29" y="0">C</tspan><tspan class="cls-144" x="185.02" y="0">a</tspan><tspan class="cls-145" x="189.65" y="0">r</tspan><tspan class="cls-146" x="193" y="0">d</tspan><tspan class="cls-136" x="198.18" y="0">i</tspan><tspan class="cls-147" x="200.85" y="0">o</tspan><tspan class="cls-137" x="205.68" y="0">v</tspan><tspan class="cls-148" x="210.66" y="0">a</tspan><tspan class="cls-149" x="215.25" y="0">s</tspan><tspan class="cls-150" x="219.19" y="0">c</tspan><tspan class="cls-148" x="223.69" y="0">u</tspan><tspan class="cls-151" x="228.84" y="0">l</tspan><tspan class="cls-144" x="231.63" y="0">a</tspan><tspan x="236.27" y="0">r </tspan><tspan class="cls-152" x="0" y="10">D</tspan><tspan class="cls-103" x="7.3" y="10">i</tspan><tspan class="cls-153" x="10.12" y="10">s</tspan><tspan class="cls-154" x="14.05" y="10">e</tspan><tspan class="cls-148" x="18.58" y="10">a</tspan><tspan class="cls-155" x="23.17" y="10">s</tspan><tspan x="27.1" y="10">e </tspan><tspan class="cls-156" x="34.04" y="10">(</tspan><tspan class="cls-157" x="37.54" y="10">I</tspan><tspan class="cls-158" x="41.11" y="10">n</tspan><tspan class="cls-159" x="46.05" y="10">te</tspan><tspan class="cls-160" x="53.51" y="10">r</tspan><tspan class="cls-161" x="57.28" y="10">p</tspan><tspan class="cls-162" x="62.33" y="10">r</tspan><tspan class="cls-7" x="65.72" y="10">e</tspan><tspan class="cls-163" x="70.2" y="10">t</tspan><tspan class="cls-164" x="73.22" y="10">a</tspan><tspan class="cls-165" x="77.67" y="10">t</tspan><tspan class="cls-136" x="80.65" y="10">i</tspan><tspan class="cls-166" x="83.32" y="10">o</tspan><tspan class="cls-167" x="88.33" y="10">n</tspan><tspan class="cls-168" x="92.91" y="10">)</tspan><tspan x="95.97" y="10">:</tspan></text><line class="cls-169" x1="215.21" y1="136.48" x2="40.39" y2="136.48"/><text class="cls-4" transform="translate(0.5 184.85)"><tspan class="cls-170">H</tspan><tspan class="cls-171" x="6.39" y="0">y</tspan><tspan class="cls-172" x="11.22" y="0">p</tspan><tspan class="cls-173" x="15.85" y="0">e</tspan><tspan class="cls-20" x="19.99" y="0">r</tspan><tspan class="cls-174" x="23.37" y="0">te</tspan><tspan class="cls-175" x="30.15" y="0">n</tspan><tspan class="cls-176" x="34.8" y="0">s</tspan><tspan class="cls-18" x="38.28" y="0">i</tspan><tspan class="cls-177" x="40.73" y="0">o</tspan><tspan x="45.27" y="0">n</tspan></text><text class="cls-178" transform="translate(0.5 160.03)"><tspan class="cls-179">2</tspan><tspan class="cls-180" x="5.82" y="0">2</tspan><tspan class="cls-181" x="11.97" y="0">.</tspan><tspan class="cls-182" x="15.4" y="0">3</tspan><tspan x="20.89" y="0">%</tspan></text><text class="cls-38" transform="translate(0.5 174.23)"><tspan class="cls-183">高</tspan><tspan class="cls-184" x="11.98" y="0">血</tspan><tspan x="24.26" y="0">压</tspan></text><line class="cls-185" x1="47.62" y1="187.61" x2="0.5" y2="187.61"/><line class="cls-186" x1="94.56" y1="187.61" x2="66.05" y2="187.61"/><text class="cls-4" transform="translate(66.05 184.85)"><tspan class="cls-187">T</tspan><tspan x="4.8" y="0">o</tspan><tspan class="cls-188" x="9.3" y="0">b</tspan><tspan class="cls-189" x="13.86" y="0">a</tspan><tspan class="cls-102" x="18" y="0">cc</tspan><tspan x="26.19" y="0">o</tspan></text><text class="cls-178" transform="translate(66.05 160.03)"><tspan class="cls-44">1</tspan><tspan class="cls-190" x="5.81" y="0">9</tspan><tspan class="cls-191" x="11.34" y="0">.</tspan><tspan class="cls-192" x="14.5" y="0">2</tspan><tspan x="20.06" y="0">%</tspan></text><text class="cls-38" transform="translate(66.05 174.23)"><tspan class="cls-193">烟</tspan><tspan x="12.01" y="0">草</tspan></text><text class="cls-178" transform="translate(156.88 160.03)"><tspan class="cls-194">2</tspan><tspan class="cls-195" x="5.75" y="0">7</tspan><tspan class="cls-196" x="11.05" y="0">.</tspan><tspan class="cls-197" x="14.34" y="0">5</tspan><tspan x="19.91" y="0">%</tspan></text><text class="cls-4" transform="translate(156.88 184.85)"><tspan class="cls-198">L</tspan><tspan class="cls-199" x="5.62" y="0">a</tspan><tspan class="cls-200" x="9.76" y="0">c</tspan><tspan x="13.75" y="0">k </tspan><tspan class="cls-91" x="20.5" y="0">o</tspan><tspan x="24.85" y="0">f </tspan><tspan class="cls-201" x="30.09" y="0">E</tspan><tspan class="cls-202" x="35.63" y="0">x</tspan><tspan class="cls-173" x="40" y="0">e</tspan><tspan class="cls-203" x="44.14" y="0">r</tspan><tspan class="cls-103" x="47.22" y="0">c</tspan><tspan class="cls-204" x="51.25" y="0">i</tspan><tspan class="cls-205" x="53.83" y="0">s</tspan><tspan x="57.4" y="0">e</tspan></text><text class="cls-38" transform="translate(156.88 174.23)"><tspan class="cls-206">运</tspan><tspan class="cls-207" x="12.21" y="0">动</tspan><tspan class="cls-208" x="24.33" y="0">不</tspan><tspan x="35.77" y="0">足</tspan></text><line class="cls-209" x1="183.07" y1="187.61" x2="156.88" y2="187.61"/><line class="cls-210" x1="228.32" y1="187.61" x2="255.65" y2="187.61"/><text class="cls-178" transform="translate(228.32 160.03)"><tspan class="cls-211">1</tspan><tspan class="cls-212" x="5.83" y="0">3</tspan><tspan class="cls-191" x="11.74" y="0">.</tspan><tspan class="cls-213" x="14.9" y="0">2</tspan><tspan x="20.46" y="0">%</tspan></text><text class="cls-4" transform="translate(228.32 184.85)"><tspan class="cls-214">O</tspan><tspan class="cls-215" x="6.52" y="0">b</tspan><tspan class="cls-216" x="11.12" y="0">e</tspan><tspan class="cls-176" x="15.25" y="0">s</tspan><tspan class="cls-217" x="18.73" y="0">i</tspan><tspan class="cls-218" x="21.19" y="0">t</tspan><tspan x="24.01" y="0">y</tspan></text><text class="cls-38" transform="translate(228.32 174.23)"><tspan class="cls-219">肥</tspan><tspan x="12.12" y="0">胖</tspan></text><line class="cls-220" x1="208.98" y1="272.29" x2="236.32" y2="272.29"/><text class="cls-4" transform="translate(208.98 269.53)"><tspan class="cls-221">D</tspan><tspan class="cls-98" x="6.56" y="0">a</tspan><tspan class="cls-222" x="10.73" y="0">s</tspan><tspan class="cls-223" x="14.25" y="0">h</tspan><tspan class="cls-224" x="18.78" y="0">e</tspan><tspan x="22.9" y="0">d </tspan><tspan class="cls-199" x="29.65" y="0">l</tspan><tspan class="cls-225" x="32.31" y="0">i</tspan><tspan class="cls-226" x="35.04" y="0">n</tspan><tspan class="cls-227" x="39.57" y="0">e</tspan><tspan x="43.39" y="0">: </tspan><tspan class="cls-228" x="48.14" y="0">d</tspan><tspan class="cls-103" x="52.87" y="0">a</tspan><tspan class="cls-229" x="56.9" y="0">t</tspan><tspan x="59.65" y="0">a </tspan><tspan class="cls-230" x="65.89" y="0">ga</tspan><tspan x="74.53" y="0">p</tspan></text><text class="cls-38" transform="translate(208.98 258.91)"><tspan class="cls-231">虚</tspan><tspan class="cls-232" x="12.23" y="0">线</tspan><tspan class="cls-233" x="23.47" y="0">：</tspan><tspan class="cls-234" x="31.58" y="0">数</tspan><tspan class="cls-235" x="43.91" y="0">据</tspan><tspan class="cls-236" x="56.2" y="0">空</tspan><tspan x="68.3" y="0">缺</tspan></text><line class="cls-237" x1="135.99" y1="187.61" x2="109.8" y2="187.61"/><text class="cls-178" transform="translate(109.8 160.03)"><tspan class="cls-238">8</tspan><tspan class="cls-196" x="6.18" y="0">.</tspan><tspan class="cls-239" x="9.47" y="0">5</tspan><tspan x="15.03" y="0">%</tspan></text><text class="cls-4" transform="translate(109.8 184.85)"><tspan class="cls-215">D</tspan><tspan class="cls-7" x="6.6" y="0">i</tspan><tspan class="cls-230" x="9.14" y="0">a</tspan><tspan class="cls-240" x="13.2" y="0">b</tspan><tspan class="cls-241" x="17.81" y="0">e</tspan><tspan class="cls-174" x="21.87" y="0">t</tspan><tspan class="cls-242" x="24.52" y="0">e</tspan><tspan x="28.64" y="0">s</tspan></text><text class="cls-38" transform="translate(109.8 174.23)"><tspan class="cls-243">糖</tspan><tspan class="cls-244" x="11.98" y="0">尿</tspan><tspan x="24.01" y="0">病</tspan></text><line class="cls-245" x1="127.8" y1="364.23" x2="127.8" y2="191.3"/><line class="cls-246" x1="125.8" y1="314.78" x2="22.18" y2="191.3"/><line class="cls-246" x1="127.61" y1="315.78" x2="82.3" y2="191.3"/><line class="cls-246" x1="128.06" y1="316.05" x2="174.08" y2="191.3"/><line class="cls-246" x1="129.8" y1="314.78" x2="232.8" y2="192.04"/><polygon class="cls-247" points="125.3 344.79 130.3 344.79 131 313.78 124.6 313.78 125.3 344.79"/><line class="cls-248" x1="127.8" y1="313.78" x2="127.8" y2="279.78"/><line class="cls-248" x1="125.8" y1="314.78" x2="68.46" y2="246.45"/><line class="cls-248" x1="127.61" y1="315.78" x2="101.35" y2="243.62"/><line class="cls-248" x1="128.06" y1="316.05" x2="165.69" y2="212.68"/><line class="cls-248" x1="129.8" y1="314.78" x2="163.74" y2="274.34"/><polygon class="cls-247" points="180.8 344.79 185.8 344.79 186.5 313.78 180.1 313.78 180.8 344.79"/><line class="cls-249" x1="185.3" y1="314.78" x2="218.35" y2="275.39"/><path class="cls-250" d="M1654.7,533.22a9.32,9.32,0,0,1,18.59.89H1664Z" transform="translate(-1594.51 -288.65)"/><path class="cls-251" d="M1673.29,534.11a9.32,9.32,0,0,1-18.63,0,8.7,8.7,0,0,1,0-.89l9.27.89Z" transform="translate(-1594.51 -288.65)"/><path class="cls-250" d="M1686.41,529.94a8.86,8.86,0,1,1,4.32,9.23l4.41-7.69Z" transform="translate(-1594.51 -288.65)"/><path class="cls-251" d="M1690.73,539.17a8.87,8.87,0,0,1-4.32-9.23l8.73,1.54Z" transform="translate(-1594.51 -288.65)"/><path class="cls-250" d="M1728.63,567.32a6.42,6.42,0,1,1-12.64,2.23c0-.23-.07-.47-.09-.71l6.41-.4Z" transform="translate(-1594.51 -288.65)"/><path class="cls-251" d="M1715.9,568.84a6.42,6.42,0,0,1,12.73-1.52l-6.32,1.12Z" transform="translate(-1594.51 -288.65)"/><path class="cls-250" d="M1750.68,505.2a9.94,9.94,0,0,1,15.55-11.48l-6.39,7.61Z" transform="translate(-1594.51 -288.65)"/><path class="cls-251" d="M1766.23,493.72a9.94,9.94,0,1,1-15.55,11.48l9.16-3.87Z" transform="translate(-1594.51 -288.65)"/><path class="cls-250" d="M1763,555.2a7.74,7.74,0,0,1-3.71,14.53V562Z" transform="translate(-1594.51 -288.65)"/><path class="cls-251" d="M1759.25,569.73a7.74,7.74,0,0,1,0-15.48,7.64,7.64,0,0,1,3.71,1l-3.71,6.79Z" transform="translate(-1594.51 -288.65)"/><path class="cls-252" d="M1664,529.26" transform="translate(-1594.51 -288.65)"/><text class="cls-38" transform="translate(48.02 123.1)"><tspan class="cls-253">危</tspan><tspan x="12.01" y="0">险</tspan><tspan class="cls-254" x="24.01" y="0">因</tspan><tspan class="cls-255" x="35.97" y="0">素</tspan><tspan class="cls-256" x="48.23" y="0">患</tspan><tspan class="cls-257" x="60.09" y="0">有</tspan><tspan class="cls-258" x="72.26" y="0">率</tspan><tspan x="83.36" y="0" xml:space="preserve">： 低    -    高</tspan></text><text class="cls-4" transform="translate(48.02 133.72)"><tspan class="cls-259">R</tspan><tspan class="cls-204" x="6.29" y="0">i</tspan><tspan class="cls-260" x="8.87" y="0">s</tspan><tspan x="12.41" y="0">k </tspan><tspan class="cls-261" x="19.16" y="0">F</tspan><tspan class="cls-199" x="23.83" y="0">a</tspan><tspan class="cls-92" x="27.97" y="0">c</tspan><tspan class="cls-262" x="32.05" y="0">t</tspan><tspan class="cls-19" x="34.69" y="0">o</tspan><tspan x="39.23" y="0">r </tspan><tspan class="cls-87" x="44.47" y="0">P</tspan><tspan class="cls-263" x="49.67" y="0">r</tspan><tspan class="cls-226" x="52.76" y="0">e</tspan><tspan class="cls-97" x="56.79" y="0">v</tspan><tspan class="cls-264" x="61.31" y="0">a</tspan><tspan class="cls-265" x="65.4" y="0">l</tspan><tspan class="cls-266" x="67.86" y="0">e</tspan><tspan class="cls-267" x="72" y="0">n</tspan><tspan class="cls-14" x="76.55" y="0">c</tspan><tspan x="80.63" y="0">e </tspan><tspan class="cls-268" x="86.87" y="0">R</tspan><tspan class="cls-103" x="93.07" y="0">a</tspan><tspan class="cls-174" x="97.1" y="0">t</tspan><tspan class="cls-227" x="99.74" y="0">e</tspan><tspan x="103.56" y="0">: </tspan><tspan class="cls-269" x="108.31" y="0">L</tspan><tspan class="cls-270" x="113.98" y="0">o</tspan><tspan x="118.37" y="0" xml:space="preserve">w  -  </tspan><tspan class="cls-271" x="136.87" y="0">H</tspan><tspan class="cls-272" x="143.53" y="0">i</tspan><tspan class="cls-273" x="145.96" y="0">g</tspan><tspan x="150.67" y="0">h</tspan></text><path class="cls-250" d="M1747.31,388a5,5,0,0,0,0,10Z" transform="translate(-1594.51 -288.65)"/><path class="cls-274" d="M1747.31,388v10a5,5,0,0,0,0-10Z" transform="translate(-1594.51 -288.65)"/><path class="cls-250" d="M1792.09,378a10,10,0,1,0,0,20Z" transform="translate(-1594.51 -288.65)"/><path class="cls-274" d="M1792.09,378v20a10,10,0,0,0,0-20Z" transform="translate(-1594.51 -288.65)"/><line class="cls-275" x1="94.8" y1="80.83" x2="68.76" y2="80.83"/><line class="cls-276" x1="186.84" y1="80.83" x2="154.51" y2="80.83"/><text class="cls-4" transform="translate(68.76 78.07)"><tspan class="cls-205">M</tspan><tspan class="cls-264" x="8.07" y="0">a</tspan><tspan class="cls-277" x="12.16" y="0">l</tspan><tspan x="14.63" y="0">e</tspan></text><text class="cls-4" transform="translate(154.28 78.07)"><tspan class="cls-278">F</tspan><tspan class="cls-224" x="4.71" y="0">e</tspan><tspan class="cls-15" x="8.84" y="0">m</tspan><tspan class="cls-279" x="15.96" y="0">a</tspan><tspan class="cls-277" x="20.05" y="0">l</tspan><tspan x="22.52" y="0">e</tspan></text><path class="cls-250" d="M1712.77,345a7.5,7.5,0,0,0,0,15Z" transform="translate(-1594.51 -288.65)"/><path class="cls-274" d="M1712.77,345v15a7.5,7.5,0,0,0,0-15Z" transform="translate(-1594.51 -288.65)"/><text class="cls-38" transform="translate(68.76 67.45)">男</text><text class="cls-38" transform="translate(155.76 67.45)">女</text><line class="cls-280" x1="125.76" y1="63.88" x2="144.72" y2="63.88"/><path class="cls-274" d="M1745.27,352.53a30.2,30.2,0,0,0-8.55,4.76l1.72-4.76-1.72-4.75A30.18,30.18,0,0,0,1745.27,352.53Z" transform="translate(-1594.51 -288.65)"/><line class="cls-281" x1="110.76" y1="63.88" x2="91.79" y2="63.88"/><path class="cls-250" d="M1680.27,352.53a30.12,30.12,0,0,0,8.54-4.75l-1.72,4.75,1.72,4.76A30.15,30.15,0,0,0,1680.27,352.53Z" transform="translate(-1594.51 -288.65)"/></svg>