<svg id="小图表的图例" xmlns="http://www.w3.org/2000/svg" viewBox="0 0 206.48 20.48"><defs><style>.cls-1{opacity:0.8;}.cls-2{font-size:12px;fill:#845959;font-family:MicrosoftYaHeiLight, Microsoft YaHei;}.cls-3{letter-spacing:0em;}.cls-4{letter-spacing:0em;}.cls-5{letter-spacing:-0.02em;}.cls-6{letter-spacing:-0.04em;}.cls-7{letter-spacing:0.01em;}.cls-12,.cls-18,.cls-8{fill:#d34f4f;}.cls-8{opacity:0.5;}.cls-9{fill:#d69999;}.cls-10{opacity:0.7;}.cls-11,.cls-14,.cls-16{fill:none;stroke-miterlimit:10;stroke-dasharray:5 5;}.cls-11{stroke:#d34f4f;}.cls-13,.cls-19,.cls-20{opacity:0.4;}.cls-14{stroke:#dba9a9;}.cls-15,.cls-19{fill:#dba9a9;}.cls-16{stroke:#8cb3dd;}.cls-17,.cls-20{fill:#8cb3dd;}.cls-18{opacity:0.7;}</style></defs><title>左边图例改</title><g class="cls-1"><text class="cls-2" transform="translate(6.51 13.8)"><tspan class="cls-3">危</tspan><tspan x="12.01" y="0">险</tspan><tspan class="cls-4" x="24.01" y="0">因</tspan><tspan class="cls-5" x="35.97" y="0">素</tspan><tspan class="cls-6" x="47.72" y="0">平</tspan><tspan class="cls-7" x="59.25" y="0">均</tspan><tspan x="71.42" y="0">值</tspan></text></g><rect class="cls-8" width="1.51" height="20.48"/><path class="cls-9" d="M332.53,641.94" transform="translate(-173.81 -631.71)"/><g class="cls-1"><text class="cls-2" transform="translate(107.48 13.8)">男</text></g><g class="cls-1"><text class="cls-2" transform="translate(194.48 13.8)">女</text></g><g class="cls-10"><line class="cls-11" x1="164.48" y1="10.24" x2="183.45" y2="10.24"/><path class="cls-12" d="M363.29,641.94a30.39,30.39,0,0,0-8.54,4.76l1.72-4.76-1.72-4.75A30.12,30.12,0,0,0,363.29,641.94Z" transform="translate(-173.81 -631.71)"/></g><g class="cls-10"><line class="cls-11" x1="149.48" y1="10.24" x2="130.52" y2="10.24"/><path class="cls-12" d="M298.29,641.94a30.18,30.18,0,0,0,8.55-4.75l-1.72,4.75,1.72,4.76A30.2,30.2,0,0,0,298.29,641.94Z" transform="translate(-173.81 -631.71)"/></g><g class="cls-13"><line class="cls-14" x1="164.48" y1="10.24" x2="183.45" y2="10.24"/><path class="cls-15" d="M363.29,641.94a30.39,30.39,0,0,0-8.54,4.76l1.72-4.76-1.72-4.75A30.12,30.12,0,0,0,363.29,641.94Z" transform="translate(-173.81 -631.71)"/></g><g class="cls-13"><line class="cls-16" x1="149.48" y1="10.24" x2="130.52" y2="10.24"/><path class="cls-17" d="M298.29,641.94a30.18,30.18,0,0,0,8.55-4.75l-1.72,4.75,1.72,4.76A30.2,30.2,0,0,0,298.29,641.94Z" transform="translate(-173.81 -631.71)"/></g><rect class="cls-18" x="323.29" y="634.44" width="15" height="15" transform="translate(487.78 652.18) rotate(-180)"/><rect class="cls-19" x="156.98" y="2.74" width="7.5" height="15"/><rect class="cls-20" x="149.48" y="2.74" width="7.5" height="15"/></svg>