<svg id="icon" xmlns="http://www.w3.org/2000/svg" viewBox="0 0 26 23.79"><defs><style>.cls-1{fill:#ffebeb;}</style></defs><title>肥胖</title><path class="cls-1" d="M148.46,664.75v-.54a.61.61,0,0,0-.56-.62c-.83-.06-1.66-.14-2.48-.23l-.75-.08a.61.61,0,0,0-.69.61v.42l1.88.2C146.72,664.61,147.59,664.68,148.46,664.75Z" transform="translate(-141.72 -649.39)"/><path class="cls-1" d="M154.13,665v-.48a.62.62,0,0,0-.61-.62c-1.07,0-2.15-.05-3.22-.1a.61.61,0,0,0-.65.61v.35s0,.07,0,.11c1.49.09,3,.14,4.49.15Z" transform="translate(-141.72 -649.39)"/><path class="cls-1" d="M159.8,664.72v-.35a.61.61,0,0,0-.64-.61c-1.08,0-2.15.09-3.23.1a.62.62,0,0,0-.61.62v.5c1.5,0,3-.06,4.49-.15C159.81,664.79,159.8,664.76,159.8,664.72Z" transform="translate(-141.72 -649.39)"/><path class="cls-1" d="M142.08,663H142l-.12.74a.33.33,0,0,0,.3.38h0a.55.55,0,0,0,.61-.55h0a.55.55,0,0,0-.49-.55Z" transform="translate(-141.72 -649.39)"/><path class="cls-1" d="M165.48,664.31v-.42a.61.61,0,0,0-.69-.61l-.75.08c-.82.09-1.65.17-2.47.23a.63.63,0,0,0-.57.62v.54c.86-.07,1.73-.14,2.59-.24Z" transform="translate(-141.72 -649.39)"/><path class="cls-1" d="M167.46,663h-.24a.63.63,0,0,0-.55.62v.18a.34.34,0,0,0,.37.34l.24,0a.34.34,0,0,0,.3-.38Z" transform="translate(-141.72 -649.39)"/><path class="cls-1" d="M163.77,666.09a83.73,83.73,0,0,1-18.09,0l-4-.43c.53,4.45,3.6,7.51,13,7.51h0c9.4,0,12.47-3.06,13-7.51Zm-9.05,3.33a1,1,0,1,1,1-1A1,1,0,0,1,154.72,669.42Z" transform="translate(-141.72 -649.39)"/><path class="cls-1" d="M167.36,660.14c-2.15-8-4.91-10.57-12.63-10.75h0c-7.72.18-10.48,2.73-12.63,10.75a9,9,0,0,0-.26,1.27,2,2,0,0,1,.42,0l3.33.38a82.25,82.25,0,0,0,18.29,0l3.32-.38a2,2,0,0,1,.43,0A9,9,0,0,0,167.36,660.14Z" transform="translate(-141.72 -649.39)"/></svg>