<svg id="icon" xmlns="http://www.w3.org/2000/svg" viewBox="0 0 28 17.55"><defs><style>.cls-1{fill:#ffebeb;}</style></defs><title>高血糖</title><path class="cls-1" d="M167.75,604.86l-1.51-3a.6.6,0,0,0-1.08,0l-1.51,3a2.32,2.32,0,0,0-.2,1.55,2.31,2.31,0,0,0,4.56-.49A2.37,2.37,0,0,0,167.75,604.86Z" transform="translate(-140.72 -594.44)"/><path class="cls-1" d="M166.55,594.45l-14.46.42-6.78.19s-4.63-.13-4.59,6.17l.14,4.76c.33,6.41,4.94,6,4.94,6l8.35-.25a2.29,2.29,0,0,0,2.09-1.78,2.42,2.42,0,0,0-.35-2,.63.63,0,0,0-.5-.25l-.91,0h0a.23.23,0,1,1,0-.46l1.45,0a.53.53,0,0,0,.28-.07,2.43,2.43,0,0,0,.76-3.5.6.6,0,0,0-.5-.25l-2.06,0h0a.24.24,0,0,1-.23-.23.23.23,0,0,1,.23-.23l2.65,0a.59.59,0,0,0,.29-.07,2.43,2.43,0,0,0,1.1-1.48,2.38,2.38,0,0,0-.39-2,.61.61,0,0,0-.49-.25l-3.11.06h0a.23.23,0,0,1,0-.46l12.4-.37a1.88,1.88,0,0,0,1.88-1.89A2.06,2.06,0,0,0,166.55,594.45Z" transform="translate(-140.72 -594.44)"/></svg>