<svg id="icon" xmlns="http://www.w3.org/2000/svg" viewBox="0 0 28 24.84"><defs><style>.cls-1{fill:#ffebeb;}</style></defs><title>高血压</title><path class="cls-1" d="M148.75,545.48l3.16-6.68a1,1,0,0,1,1.82.07l2.14,5.64,1.45-3.44a1,1,0,0,1,.69-.58,1,1,0,0,1,.87.22l1,.92,1.46-1.57a1,1,0,0,1,.75-.31,1,1,0,0,1,.73.35l1.23,1.48h4.63c-.18-5.48-2.75-8.84-7.48-8.84-2.84,0-5.68,3.2-6.51,3.83-.82-.63-3.66-3.83-6.51-3.83-4.91,0-7.5,3.61-7.5,9.47a8.39,8.39,0,0,0,.75,3.27Z" transform="translate(-140.72 -532.74)"/><path class="cls-1" d="M163.63,543.55a1,1,0,0,1-.76-.36l-.81-1-1.35,1.45a1,1,0,0,1-1.38.07l-.72-.64-1.87,4.44a1,1,0,0,1-.91.6h0a1,1,0,0,1-.9-.63l-2.2-5.78-2.41,5.09-.09.15a1,1,0,0,1-.85.48h-6.82c3.32,5.2,10.23,9.81,12.19,10.13,2.44-.4,12.58-7.46,13.87-14Z" transform="translate(-140.72 -532.74)"/></svg>