<svg id="icon" xmlns="http://www.w3.org/2000/svg" viewBox="0 0 28.4 12.27"><defs><style>.cls-1{fill:#ffebeb;}</style></defs><title>烟草</title><path class="cls-1" d="M164.49,573.27a.38.38,0,0,1-.28-.12.4.4,0,0,1,0-.57l1-1-1.31-1.45a.41.41,0,0,1,0-.5l1.06-1.44a.41.41,0,0,1,.56-.08.4.4,0,0,1,.09.56l-.87,1.17,1.34,1.49a.39.39,0,0,1,0,.55l-1.26,1.25A.39.39,0,0,1,164.49,573.27Z" transform="translate(-140.52 -568.05)"/><path class="cls-1" d="M167.26,573.27a.41.41,0,0,1-.28-.69l1-1-1.31-1.45a.41.41,0,0,1,0-.5l1.06-1.44a.41.41,0,0,1,.56-.08.4.4,0,0,1,.09.56l-.87,1.17,1.34,1.49a.4.4,0,0,1,0,.55l-1.27,1.25A.38.38,0,0,1,167.26,573.27Z" transform="translate(-140.52 -568.05)"/><rect class="cls-1" y="6.5" width="22.44" height="5.77" rx="1.5"/><rect class="cls-1" x="23.72" y="6.5" width="1.33" height="5.77" rx="0.66"/><rect class="cls-1" x="26.32" y="6.5" width="1.33" height="5.77" rx="0.66"/></svg>